<svg viewBox="0 0 800 800" xmlns="http://www.w3.org/2000/svg"><path d="M349.6829109734495,428.810170205522 L349.6829090609098,428.8081349852344 M93.28328533032897,576.842563090697 L93.28328055811795,576.8405262318327 M349.6829109734495,428.810170205522 L374.8983217477082,447.1101561148194 M374.8983217477082,447.1101561148194 L392.4397676843582,468.2078139361682 M392.4397676843582,468.2078139361682 L401.4234337505825,491.0482793104392 M401.4234337505825,491.0482793104392 L401.39269921568894,514.4879705906837 M401.39269921568894,514.4879705906837 L392.34234013581823,537.351505950737 M392.34234013581823,537.351505950737 L374.7200004782253,558.4907369152552 M374.7200004782253,558.4907369152552 L349.40514471233615,576.842563090697 M349.40514471233615,576.842563090697 L317.66561052246493,591.4829257122742 M317.66561052246493,591.4829257122742 L281.0945251604727,601.6738296483547 M281.0945251604727,601.6738296483547 L241.52988333248453,606.9012157041007 M241.52988333248453,606.9012157041007 L200.96185546254645,606.901201066647 M200.96185546254645,606.901201066647 L161.4314347857579,601.6738345269505 M161.4314347857579,601.6738345269505 L124.92700214134976,591.4829232735178 M124.92700214134976,591.4829232735178 L93.28328533032897,576.842563090697 M349.6829090609098,428.8081349852344 L374.8983201153177,447.1081206916803 M374.8983201153177,447.1081206916803 L392.43976624679215,468.2057782792668 M392.43976624679215,468.2057782792668 L401.4234324126528,491.04624340058723 M401.4234324126528,491.04624340058723 L401.3926978770751,514.4859344213764 M401.3926978770751,514.4859344213764 L392.34233869608283,537.3494695284805 M392.34233869608283,537.3494695284805 L374.7199988418647,558.4887002592391 M374.7199988418647,558.4887002592391 L349.40514279361213,576.8405262318327 M349.40514279361213,576.8405262318327 L317.66560824976415,591.4808886916442 M317.66560824976415,591.4808886916442 L281.0945224799662,601.6717925151529 M281.0945224799662,601.6717925151529 L241.52988021088623,606.8991785131657 M241.52988021088623,606.8991785131657 L200.96185188882652,606.8991638757118 M200.96185188882652,606.8991638757118 L161.4314307717087,601.6717973937486 M161.4314307717087,601.6717973937486 L124.92699772098052,591.4808862528878 M124.92699772098052,591.4808862528878 L93.28328055811795,576.8405262318327 M93.28328533032897,576.842563090697 L68.0884984811488,558.490739352259 M68.0884984811488,558.490739352259 L50.60450025552433,537.351510822499 M50.60450025552433,537.351510822499 L41.703744264719944,514.4879657213496 M41.703744264719944,514.4879657213496 L41.826365799711596,491.04829391097616 M41.826365799711596,491.04829391097616 L50.95950088152949,468.2078090717468 M50.95950088152949,468.2078090717468 L68.63898248386238,447.1101682702761 M68.63898248386238,447.1101682702761 L93.97413987720068,428.810170205522 M93.97413987720068,428.810170205522 L125.69303335396836,414.2216551944366 M125.69303335396836,414.2216551944366 L162.206704787364,404.0723025484447 M162.206704787364,404.0723025484447 L201.68841958642673,398.86800601688435 M201.68841958642673,398.86800601688435 L242.164560339642,398.86800115981873 M242.164560339642,398.86800115981873 L281.6122218222657,404.0723074060621 M281.6122218222657,404.0723074060621 L318.0594787915169,414.22164790639584 M318.0594787915169,414.22164790639584 L349.6829109734495,428.810170205522 M93.28328055811795,576.8405262318327 L68.08849342924981,558.4887026962426 M68.08849342924981,558.4887026962426 L50.60449501008134,537.3494744002426 M50.60449501008134,537.3494744002426 L41.703738921487115,514.4859295520423 M41.703738921487115,514.4859295520423 L41.82636045920913,491.04625800112393 M41.82636045920913,491.04625800112393 L50.95949564399041,468.2057734148454 M50.95949564399041,468.2057734148454 L68.63897744421956,447.1081328471369 M68.63897744421956,447.1081328471369 L93.97413512037122,428.8081349852344 M93.97413512037122,428.8081349852344 L125.69302895065425,414.2196201359178 M125.69302895065425,414.2196201359178 L162.20670079057555,404.07026760250034 M162.20670079057555,404.07026760250034 L201.68841602888324,398.8659711286747 M201.68841602888324,398.8659711286747 L242.16455723217405,398.8659662716092 M242.16455723217405,398.8659662716092 L281.61221915328554,404.07027246011774 M281.61221915328554,404.07027246011774 L318.0594765275851,414.21961284787716 M318.0594765275851,414.21961284787716 L349.6829090609098,428.8081349852344" stroke="black"  stroke-width="4"  fill="red"/>
<path d="M688.8003911231391,233.0206017541912 L688.8003929786846,233.01856870927782 M354.0963415100241,426.26207489718104 L354.0963396466274,426.260039705145 M688.8003911231391,233.0206017541912 L718.2468897658781,253.68791649764887 M718.2468897658781,253.68791649764887 L740.1558888903686,277.27849734117126 M740.1558888903686,277.27849734117126 L753.6811096376107,302.8895388072566 M753.6811096376107,302.8895388072566 L758.2962584488324,329.53934977041627 M758.2962584488324,329.53934977041627 L753.8163110718525,356.20468755126456 M753.8163110718525,356.20468755126456 L740.405708608628,381.85994566399575 M740.405708608628,381.85994566399575 L718.5732950749364,405.516701436722 M718.5732950749364,405.516701436722 L689.1536898421751,426.26207489718104 M689.1536898421751,426.26207489718104 L653.275915381585,443.2943816303595 M653.275915381585,443.2943816303595 L612.3202594571063,455.95462939537043 M612.3202594571063,455.95462939537043 L567.8649848094872,463.75251719623355 M567.8649848094872,463.75251719623355 L521.6250156760996,466.38583733169884 M521.6250156760996,466.38583733169884 L475.38504654271196,463.75251719623355 M475.38504654271196,463.75251719623355 L430.9297718950928,455.9546293953703 M430.9297718950928,455.9546293953703 L389.9741159706141,443.2943816303595 M389.9741159706141,443.2943816303595 L354.0963415100241,426.26207489718104 M688.8003929786846,233.01856870927782 L718.2468919487553,253.6858832226663 M718.2468919487553,253.6858832226663 L740.1558913171029,277.2764638037042 M740.1558913171029,277.2764638037042 L753.6811122152611,302.8875049849771 M753.6811122152611,302.8875049849771 L758.2962610785129,329.5373156519415 M758.2962610785129,329.5373156519415 L753.8163136525072,356.2026531365946 M753.8163136525072,356.2026531365946 L740.405711040914,381.85791096451334 M740.405711040914,381.85791096451334 L718.5732972650668,405.51466647475513 M718.5732972650668,405.51466647475513 L689.1536917055718,426.260039705145 M689.1536917055718,426.260039705145 L653.2759168461907,443.2923462495108 M653.2759168461907,443.2923462495108 L612.3202604662231,455.95259387422124 M612.3202604662231,455.95259387422124 L567.864985324018,463.75048158868793 M567.864985324018,463.75048158868793 L521.6250156760996,466.38380169498083 M521.6250156760996,466.38380169498083 L475.3850460281812,463.75048158868793 M475.3850460281812,463.75048158868793 L430.92977088597615,455.95259387422124 M430.92977088597615,455.95259387422124 L389.9741145060085,443.2923462495108 M389.9741145060085,443.2923462495108 L354.0963396466274,426.260039705145 M354.0963415100241,426.26207489718104 L324.6767362772629,405.5167014367219 M324.6767362772629,405.5167014367219 L302.8443227435713,381.85994566399563 M302.8443227435713,381.85994566399563 L289.43372028034673,356.20468755126456 M289.43372028034673,356.20468755126456 L284.9537729033667,329.5393497704162 M284.9537729033667,329.5393497704162 L289.5689217145885,302.8895388072566 M289.5689217145885,302.8895388072566 L303.09414246183064,277.27849734117126 M303.09414246183064,277.27849734117126 L325.0031415863211,253.68791649764887 M325.0031415863211,253.68791649764887 L354.44964022906015,233.0206017541912 M354.44964022906015,233.0206017541912 L390.3005215580213,216.06635379536107 M390.3005215580213,216.06635379536107 L431.17959200699715,203.47228112087527 M431.17959200699715,203.47228112087527 L475.52024825530276,195.71861016036718 M475.52024825530276,195.71861016036718 L521.6250156760996,193.1008168961307 M521.6250156760996,193.1008168961307 L567.7297830968964,195.7186101603673 M567.7297830968964,195.7186101603673 L612.070439345202,203.47228112087538 M612.070439345202,203.47228112087538 L652.9495097941779,216.06635379536118 M652.9495097941779,216.06635379536118 L688.8003911231391,233.0206017541912 M354.0963396466274,426.260039705145 L324.67673408713233,405.51466647475513 M324.67673408713233,405.51466647475513 L302.8443203112853,381.85791096451334 M302.8443203112853,381.85791096451334 L289.4337176996919,356.2026531365946 M289.4337176996919,356.2026531365946 L284.95377027368625,329.53731565194147 M284.95377027368625,329.53731565194147 L289.5689191369381,302.88750498497706 M289.5689191369381,302.88750498497706 L303.09414003509625,277.2764638037042 M303.09414003509625,277.2764638037042 L325.0031394034439,253.68588322266618 M325.0031394034439,253.68588322266618 L354.4496383735146,233.01856870927782 M354.4496383735146,233.01856870927782 L390.30052010066913,216.06432093926048 M390.30052010066913,216.06432093926048 L431.1795910034321,203.47024840507498 M431.1795910034321,203.47024840507498 L475.5202477437765,195.7165775309635 M475.5202477437765,195.7165775309635 L521.6250156760996,193.0987842958993 M521.6250156760996,193.0987842958993 L567.7297836084226,195.7165775309635 M567.7297836084226,195.7165775309635 L612.0704403487671,203.47024840507498 M612.0704403487671,203.47024840507498 L652.9495112515301,216.06432093926048 M652.9495112515301,216.06432093926048 L688.8003929786846,233.01856870927782" stroke="black"  stroke-width="4"  fill="red"/></svg>